<svg xmlns="http://www.w3.org/2000/svg" viewBox="0 0 131.99 177.76"><defs><style>.a{fill:#231f20;}</style></defs><title>a11yVis_01</title><path class="a" d="M74.67,50A15.42,15.42,0,1,0,59.26,34.56,15.42,15.42,0,0,0,74.67,50Z" transform="translate(-42.24 -19.16)"/><path class="a" d="M129.37,113.71a6.73,6.73,0,0,0-.68-2.92l.07-.07-.3-.36a6.69,6.69,0,0,0-1.36-1.68L85,57.05h0c-1.83-2.42-5.28-4-10.59-4-6,0-9.66,1-11.23,3.45h0c-.12.19-20.94,37.73-20.94,37.73l4.64,29.7c0,.16,1.35,8.06,8.12,7,7.54-1.2,5.71-9.47,5.71-9.47l-3.44-22,8.39-16.22-.45,41.27S45.83,184.1,45.65,185.69c-.34,3,.9,8,5,9.92A10.65,10.65,0,0,0,61,195.55c3.31-1.66,7-13.21,11.81-26.37,7.53-20.56,16-45.41,16-45.41l-.06-35.12L76.59,74.88s-1-1.38-.36-2.08C77.35,71.63,79,74.18,79,74.18l36.42,43.45C118,122,129.37,124.42,129.37,113.71Z" transform="translate(-42.24 -19.16)"/><path class="a" d="M89.43,128.53l-9.08,25.13,12.28,34.79a10.49,10.49,0,0,0,.86,2.49h0c1.67,3.37,7.34,8.26,14.57,4.08s2.48-14.83-.68-22C98.92,153.86,89.43,128.53,89.43,128.53Z" transform="translate(-42.24 -19.16)"/><path class="a" d="M171.17,187.25c-10.47-17.29-41-67.18-41-67.18a2.34,2.34,0,0,1-1.09,1.65c-1.1.85-1.65.64-1.65.64S158.09,171,169.3,188c2.16,3.27,2.69,6.78,4.59,5.63C175,192.94,173.19,190.58,171.17,187.25Z" transform="translate(-42.24 -19.16)"/></svg>